<mxfile host="app.diagrams.net" modified="2023-11-13T12:50:50.139Z" agent="Mozilla/5.0 (Windows NT 10.0; Win64; x64) AppleWebKit/537.36 (KHTML, like Gecko) Chrome/116.0.0.0 Safari/537.36 OPR/102.0.0.0" etag="P1utevCgyViLeXrrIDyc" version="22.1.0" type="github">
  <diagram name="Página-1" id="yde_0vAWfg_z7TEEGq9h">
    <mxGraphModel dx="2220" dy="797" grid="1" gridSize="10" guides="1" tooltips="1" connect="1" arrows="1" fold="1" page="1" pageScale="1" pageWidth="827" pageHeight="1169" math="0" shadow="0">
      <root>
        <mxCell id="0" />
        <mxCell id="1" parent="0" />
        <mxCell id="6F0gUZSjW-Ak0n6cE0_V-1" value="Meeting Planner" style="swimlane;" vertex="1" parent="1">
          <mxGeometry x="120" y="40" width="600" height="720" as="geometry">
            <mxRectangle x="120" y="40" width="130" height="30" as="alternateBounds" />
          </mxGeometry>
        </mxCell>
        <mxCell id="6F0gUZSjW-Ak0n6cE0_V-5" value="Iniciar Login" style="ellipse;whiteSpace=wrap;html=1;" vertex="1" parent="6F0gUZSjW-Ak0n6cE0_V-1">
          <mxGeometry x="40" y="40" width="140" height="70" as="geometry" />
        </mxCell>
        <mxCell id="6F0gUZSjW-Ak0n6cE0_V-6" value="Criar Reunião" style="ellipse;whiteSpace=wrap;html=1;" vertex="1" parent="6F0gUZSjW-Ak0n6cE0_V-1">
          <mxGeometry x="40" y="165" width="140" height="70" as="geometry" />
        </mxCell>
        <mxCell id="6F0gUZSjW-Ak0n6cE0_V-7" value="Incluir Requisitos Especiais" style="ellipse;whiteSpace=wrap;html=1;" vertex="1" parent="6F0gUZSjW-Ak0n6cE0_V-1">
          <mxGeometry x="200" y="210" width="120" height="50" as="geometry" />
        </mxCell>
        <mxCell id="6F0gUZSjW-Ak0n6cE0_V-8" value="Reservar Sala" style="ellipse;whiteSpace=wrap;html=1;" vertex="1" parent="6F0gUZSjW-Ak0n6cE0_V-1">
          <mxGeometry x="200" y="290" width="120" height="40" as="geometry" />
        </mxCell>
        <mxCell id="6F0gUZSjW-Ak0n6cE0_V-9" value="Incluir Data" style="ellipse;whiteSpace=wrap;html=1;" vertex="1" parent="6F0gUZSjW-Ak0n6cE0_V-1">
          <mxGeometry x="200" y="70" width="80" height="40" as="geometry" />
        </mxCell>
        <mxCell id="6F0gUZSjW-Ak0n6cE0_V-10" value="Incluir&amp;nbsp; Local" style="ellipse;whiteSpace=wrap;html=1;" vertex="1" parent="6F0gUZSjW-Ak0n6cE0_V-1">
          <mxGeometry x="214" y="130" width="80" height="40" as="geometry" />
        </mxCell>
        <mxCell id="6F0gUZSjW-Ak0n6cE0_V-23" value="Profissional" style="ellipse;whiteSpace=wrap;html=1;" vertex="1" parent="6F0gUZSjW-Ak0n6cE0_V-1">
          <mxGeometry x="120" y="330" width="80" height="40" as="geometry" />
        </mxCell>
        <mxCell id="6F0gUZSjW-Ak0n6cE0_V-22" value="Notificar Participantes" style="ellipse;whiteSpace=wrap;html=1;" vertex="1" parent="6F0gUZSjW-Ak0n6cE0_V-1">
          <mxGeometry x="340" y="140" width="90" height="55" as="geometry" />
        </mxCell>
        <mxCell id="6F0gUZSjW-Ak0n6cE0_V-35" value="" style="endArrow=none;html=1;rounded=0;" edge="1" parent="6F0gUZSjW-Ak0n6cE0_V-1" source="6F0gUZSjW-Ak0n6cE0_V-6" target="6F0gUZSjW-Ak0n6cE0_V-9">
          <mxGeometry relative="1" as="geometry">
            <mxPoint x="930" y="370" as="sourcePoint" />
            <mxPoint x="920" y="209" as="targetPoint" />
          </mxGeometry>
        </mxCell>
        <mxCell id="6F0gUZSjW-Ak0n6cE0_V-34" value="" style="endArrow=none;html=1;rounded=0;" edge="1" parent="6F0gUZSjW-Ak0n6cE0_V-1" source="6F0gUZSjW-Ak0n6cE0_V-6" target="6F0gUZSjW-Ak0n6cE0_V-10">
          <mxGeometry relative="1" as="geometry">
            <mxPoint x="920" y="360" as="sourcePoint" />
            <mxPoint x="910" y="199" as="targetPoint" />
          </mxGeometry>
        </mxCell>
        <mxCell id="6F0gUZSjW-Ak0n6cE0_V-33" value="" style="endArrow=none;html=1;rounded=0;" edge="1" parent="6F0gUZSjW-Ak0n6cE0_V-1" source="6F0gUZSjW-Ak0n6cE0_V-7" target="6F0gUZSjW-Ak0n6cE0_V-6">
          <mxGeometry relative="1" as="geometry">
            <mxPoint x="340" y="280" as="sourcePoint" />
            <mxPoint x="900" y="189" as="targetPoint" />
          </mxGeometry>
        </mxCell>
        <mxCell id="6F0gUZSjW-Ak0n6cE0_V-32" value="" style="endArrow=none;html=1;rounded=0;" edge="1" parent="6F0gUZSjW-Ak0n6cE0_V-1" source="6F0gUZSjW-Ak0n6cE0_V-8" target="6F0gUZSjW-Ak0n6cE0_V-6">
          <mxGeometry relative="1" as="geometry">
            <mxPoint x="900" y="340" as="sourcePoint" />
            <mxPoint x="890" y="179" as="targetPoint" />
          </mxGeometry>
        </mxCell>
        <mxCell id="6F0gUZSjW-Ak0n6cE0_V-39" value="Particular" style="ellipse;whiteSpace=wrap;html=1;" vertex="1" parent="6F0gUZSjW-Ak0n6cE0_V-1">
          <mxGeometry x="20" y="330" width="80" height="40" as="geometry" />
        </mxCell>
        <mxCell id="6F0gUZSjW-Ak0n6cE0_V-40" value="" style="edgeStyle=elbowEdgeStyle;elbow=vertical;endArrow=classic;html=1;curved=0;rounded=0;endSize=8;startSize=8;" edge="1" parent="6F0gUZSjW-Ak0n6cE0_V-1" source="6F0gUZSjW-Ak0n6cE0_V-39" target="6F0gUZSjW-Ak0n6cE0_V-6">
          <mxGeometry width="50" height="50" relative="1" as="geometry">
            <mxPoint x="85" y="380" as="sourcePoint" />
            <mxPoint x="135" y="330" as="targetPoint" />
          </mxGeometry>
        </mxCell>
        <mxCell id="6F0gUZSjW-Ak0n6cE0_V-42" value="" style="edgeStyle=elbowEdgeStyle;elbow=vertical;endArrow=classic;html=1;curved=0;rounded=0;endSize=8;startSize=8;" edge="1" parent="6F0gUZSjW-Ak0n6cE0_V-1">
          <mxGeometry width="50" height="50" relative="1" as="geometry">
            <mxPoint x="160" y="330" as="sourcePoint" />
            <mxPoint x="110" y="235" as="targetPoint" />
          </mxGeometry>
        </mxCell>
        <mxCell id="6F0gUZSjW-Ak0n6cE0_V-38" value="Incluir&lt;br&gt;Período de Tempo" style="ellipse;whiteSpace=wrap;html=1;" vertex="1" parent="6F0gUZSjW-Ak0n6cE0_V-1">
          <mxGeometry x="340" y="40" width="110" height="65" as="geometry" />
        </mxCell>
        <mxCell id="6F0gUZSjW-Ak0n6cE0_V-37" value="Suporte ao sistema" style="ellipse;whiteSpace=wrap;html=1;" vertex="1" parent="6F0gUZSjW-Ak0n6cE0_V-1">
          <mxGeometry x="240" y="520" width="140" height="70" as="geometry" />
        </mxCell>
        <mxCell id="6F0gUZSjW-Ak0n6cE0_V-50" value="&amp;lt;&amp;lt;include&amp;gt;&amp;gt;" style="html=1;verticalAlign=bottom;labelBackgroundColor=none;endArrow=open;endFill=0;dashed=1;rounded=0;" edge="1" parent="6F0gUZSjW-Ak0n6cE0_V-1" source="6F0gUZSjW-Ak0n6cE0_V-6" target="6F0gUZSjW-Ak0n6cE0_V-5">
          <mxGeometry width="160" relative="1" as="geometry">
            <mxPoint x="210" y="220" as="sourcePoint" />
            <mxPoint x="370" y="220" as="targetPoint" />
          </mxGeometry>
        </mxCell>
        <mxCell id="6F0gUZSjW-Ak0n6cE0_V-36" value="Verificar Disponibilidade" style="ellipse;whiteSpace=wrap;html=1;" vertex="1" parent="6F0gUZSjW-Ak0n6cE0_V-1">
          <mxGeometry x="280" y="360" width="110" height="70" as="geometry" />
        </mxCell>
        <mxCell id="6F0gUZSjW-Ak0n6cE0_V-26" value="" style="endArrow=none;html=1;rounded=0;" edge="1" parent="6F0gUZSjW-Ak0n6cE0_V-1" source="6F0gUZSjW-Ak0n6cE0_V-36" target="6F0gUZSjW-Ak0n6cE0_V-8">
          <mxGeometry relative="1" as="geometry">
            <mxPoint x="840" y="280" as="sourcePoint" />
            <mxPoint x="830" y="119" as="targetPoint" />
          </mxGeometry>
        </mxCell>
        <mxCell id="6F0gUZSjW-Ak0n6cE0_V-31" value="" style="endArrow=none;html=1;rounded=0;" edge="1" parent="6F0gUZSjW-Ak0n6cE0_V-1" source="6F0gUZSjW-Ak0n6cE0_V-22" target="6F0gUZSjW-Ak0n6cE0_V-6">
          <mxGeometry relative="1" as="geometry">
            <mxPoint x="320" y="190" as="sourcePoint" />
            <mxPoint x="880" y="169" as="targetPoint" />
          </mxGeometry>
        </mxCell>
        <mxCell id="6F0gUZSjW-Ak0n6cE0_V-28" value="" style="endArrow=none;html=1;rounded=0;" edge="1" parent="6F0gUZSjW-Ak0n6cE0_V-1" source="6F0gUZSjW-Ak0n6cE0_V-38" target="6F0gUZSjW-Ak0n6cE0_V-9">
          <mxGeometry relative="1" as="geometry">
            <mxPoint x="860" y="300" as="sourcePoint" />
            <mxPoint x="850" y="139" as="targetPoint" />
          </mxGeometry>
        </mxCell>
        <mxCell id="6F0gUZSjW-Ak0n6cE0_V-52" value="Coletar Informações" style="ellipse;whiteSpace=wrap;html=1;" vertex="1" parent="6F0gUZSjW-Ak0n6cE0_V-1">
          <mxGeometry x="240" y="440" width="140" height="70" as="geometry" />
        </mxCell>
        <mxCell id="6F0gUZSjW-Ak0n6cE0_V-2" value="Iniciador" style="shape=umlActor;verticalLabelPosition=bottom;verticalAlign=top;html=1;" vertex="1" parent="1">
          <mxGeometry x="-40" y="360" width="40" height="80" as="geometry" />
        </mxCell>
        <mxCell id="6F0gUZSjW-Ak0n6cE0_V-3" value="Participante" style="shape=umlActor;verticalLabelPosition=bottom;verticalAlign=top;html=1;" vertex="1" parent="1">
          <mxGeometry x="-100" y="520" width="40" height="80" as="geometry" />
        </mxCell>
        <mxCell id="6F0gUZSjW-Ak0n6cE0_V-4" value="Participante" style="shape=umlActor;verticalLabelPosition=bottom;verticalAlign=top;html=1;" vertex="1" parent="1">
          <mxGeometry x="760" y="230" width="40" height="80" as="geometry" />
        </mxCell>
        <mxCell id="6F0gUZSjW-Ak0n6cE0_V-12" value="" style="endArrow=none;html=1;rounded=0;" edge="1" parent="1" source="6F0gUZSjW-Ak0n6cE0_V-2" target="6F0gUZSjW-Ak0n6cE0_V-5">
          <mxGeometry relative="1" as="geometry">
            <mxPoint x="330" y="310" as="sourcePoint" />
            <mxPoint x="490" y="310" as="targetPoint" />
          </mxGeometry>
        </mxCell>
        <mxCell id="6F0gUZSjW-Ak0n6cE0_V-14" value="" style="endArrow=none;html=1;rounded=0;entryX=0.4;entryY=0.688;entryDx=0;entryDy=0;entryPerimeter=0;" edge="1" parent="1" source="6F0gUZSjW-Ak0n6cE0_V-37" target="6F0gUZSjW-Ak0n6cE0_V-2">
          <mxGeometry relative="1" as="geometry">
            <mxPoint x="950" y="310" as="sourcePoint" />
            <mxPoint x="940" y="149" as="targetPoint" />
          </mxGeometry>
        </mxCell>
        <mxCell id="6F0gUZSjW-Ak0n6cE0_V-24" value="" style="endArrow=none;html=1;rounded=0;exitX=0.575;exitY=0.65;exitDx=0;exitDy=0;exitPerimeter=0;" edge="1" parent="1" source="6F0gUZSjW-Ak0n6cE0_V-2" target="6F0gUZSjW-Ak0n6cE0_V-6">
          <mxGeometry relative="1" as="geometry">
            <mxPoint x="960" y="320" as="sourcePoint" />
            <mxPoint x="950" y="159" as="targetPoint" />
          </mxGeometry>
        </mxCell>
        <mxCell id="6F0gUZSjW-Ak0n6cE0_V-27" value="" style="endArrow=none;html=1;rounded=0;" edge="1" parent="1" source="6F0gUZSjW-Ak0n6cE0_V-4" target="6F0gUZSjW-Ak0n6cE0_V-22">
          <mxGeometry relative="1" as="geometry">
            <mxPoint x="970" y="330" as="sourcePoint" />
            <mxPoint x="960" y="169" as="targetPoint" />
          </mxGeometry>
        </mxCell>
        <mxCell id="6F0gUZSjW-Ak0n6cE0_V-29" value="" style="endArrow=none;html=1;rounded=0;" edge="1" parent="1" source="6F0gUZSjW-Ak0n6cE0_V-52" target="6F0gUZSjW-Ak0n6cE0_V-2">
          <mxGeometry relative="1" as="geometry">
            <mxPoint x="990" y="350" as="sourcePoint" />
            <mxPoint x="980" y="189" as="targetPoint" />
          </mxGeometry>
        </mxCell>
        <mxCell id="6F0gUZSjW-Ak0n6cE0_V-30" value="" style="endArrow=none;html=1;rounded=0;" edge="1" parent="1" source="6F0gUZSjW-Ak0n6cE0_V-7" target="6F0gUZSjW-Ak0n6cE0_V-4">
          <mxGeometry relative="1" as="geometry">
            <mxPoint x="1000" y="360" as="sourcePoint" />
            <mxPoint x="650" y="200" as="targetPoint" />
          </mxGeometry>
        </mxCell>
        <mxCell id="6F0gUZSjW-Ak0n6cE0_V-44" value="Secretario" style="shape=umlActor;verticalLabelPosition=bottom;verticalAlign=top;html=1;" vertex="1" parent="1">
          <mxGeometry x="20" y="520" width="40" height="80" as="geometry" />
        </mxCell>
        <mxCell id="6F0gUZSjW-Ak0n6cE0_V-46" value="" style="edgeStyle=elbowEdgeStyle;elbow=vertical;endArrow=classic;html=1;curved=0;rounded=0;endSize=8;startSize=8;" edge="1" parent="1" source="6F0gUZSjW-Ak0n6cE0_V-44" target="6F0gUZSjW-Ak0n6cE0_V-2">
          <mxGeometry width="50" height="50" relative="1" as="geometry">
            <mxPoint x="70" y="310" as="sourcePoint" />
            <mxPoint x="22" y="320" as="targetPoint" />
          </mxGeometry>
        </mxCell>
        <mxCell id="6F0gUZSjW-Ak0n6cE0_V-47" value="" style="edgeStyle=elbowEdgeStyle;elbow=vertical;endArrow=classic;html=1;curved=0;rounded=0;endSize=8;startSize=8;exitX=0.5;exitY=0;exitDx=0;exitDy=0;exitPerimeter=0;" edge="1" parent="1" source="6F0gUZSjW-Ak0n6cE0_V-3" target="6F0gUZSjW-Ak0n6cE0_V-2">
          <mxGeometry width="50" height="50" relative="1" as="geometry">
            <mxPoint x="70" y="370" as="sourcePoint" />
            <mxPoint x="-50" y="290" as="targetPoint" />
          </mxGeometry>
        </mxCell>
        <mxCell id="6F0gUZSjW-Ak0n6cE0_V-53" value="" style="endArrow=none;html=1;rounded=0;" edge="1" parent="1" source="6F0gUZSjW-Ak0n6cE0_V-4" target="6F0gUZSjW-Ak0n6cE0_V-52">
          <mxGeometry relative="1" as="geometry">
            <mxPoint x="476" y="521" as="sourcePoint" />
            <mxPoint x="10" y="415" as="targetPoint" />
          </mxGeometry>
        </mxCell>
      </root>
    </mxGraphModel>
  </diagram>
</mxfile>
